<?xml version="1.0" encoding="iso-8859-1"?>
<!-- Generator: Adobe Illustrator 19.0.0, SVG Export Plug-In . SVG Version: 6.00 Build 0)  -->
<svg version="1.1" id="Capa_1" xmlns="http://www.w3.org/2000/svg" xmlns:xlink="http://www.w3.org/1999/xlink" x="0px" y="0px"
	 viewBox="0 0 480 480" style="enable-background:new 0 0 480 480;" xml:space="preserve">
<g>
	<g>
		<path d="M48,24H32c-4.418,0-8,3.582-8,8v16c0,4.418,3.582,8,8,8h16c4.418,0,8-3.582,8-8V32C56,27.582,52.418,24,48,24z"/>
	</g>
</g>
<g>
	<g>
		<path d="M88,24H72c-4.418,0-8,3.582-8,8v16c0,4.418,3.582,8,8,8h16c4.418,0,8-3.582,8-8V32C96,27.582,92.418,24,88,24z"/>
	</g>
</g>
<g>
	<g>
		<path d="M128,24h-16c-4.418,0-8,3.582-8,8v16c0,4.418,3.582,8,8,8h16c4.418,0,8-3.582,8-8V32C136,27.582,132.418,24,128,24z"/>
	</g>
</g>
<g>
	<g>
		<rect x="384" y="32" width="32" height="16"/>
	</g>
</g>
<g>
	<g>
		<rect x="360" y="32" width="16" height="16"/>
	</g>
</g>
<g>
	<g>
		<path d="M472,360h-20.176c-0.846-2.376-1.813-4.707-2.896-6.984l14.272-14.272c3.123-3.124,3.123-8.188,0-11.312L440.568,304.8
			c-0.183-0.133-0.372-0.256-0.568-0.368V8c0-4.418-3.582-8-8-8H8C3.582,0,0,3.582,0,8v424c0,4.418,3.582,8,8,8h296.432
			c0.115,0.196,0.241,0.385,0.376,0.568l22.624,22.632c3.124,3.123,8.188,3.123,11.312,0l14.272-14.264
			c2.277,1.083,4.608,2.05,6.984,2.896V472c0,4.418,3.582,8,8,8h32c4.418,0,8-3.582,8-8v-20.176
			c2.376-0.846,4.707-1.813,6.984-2.896l14.272,14.272c3.124,3.123,8.188,3.123,11.312,0l22.632-22.632
			c3.123-3.124,3.123-8.188,0-11.312l-14.264-14.272c1.081-2.277,2.045-4.608,2.888-6.984H472c4.418,0,8-3.582,8-8v-32
			C480,363.582,476.418,360,472,360z M16,16h408v48H16V16z M310.056,424H16V80h408v230.056l-9.016,9.016
			c-2.277-1.083-4.608-2.05-6.984-2.896V296c0-4.418-3.582-8-8-8h-32c-4.418,0-8,3.582-8,8v20.176
			c-2.376,0.846-4.707,1.813-6.984,2.896L338.744,304.8c-3.124-3.123-8.188-3.123-11.312,0L304.8,327.432
			c-3.123,3.124-3.123,8.188,0,11.312l14.264,14.272c-1.083,2.277-2.05,4.608-2.896,6.984H296c-4.418,0-8,3.582-8,8v32
			c0,4.418,3.582,8,8,8h20.176c0.846,2.376,1.813,4.707,2.896,6.984L310.056,424z M464,392h-18.096
			c-3.647,0.001-6.832,2.469-7.744,6c-1.306,5.054-3.312,9.901-5.96,14.4c-1.858,3.144-1.351,7.147,1.232,9.728l12.8,12.8
			L434.92,446.24l-12.8-12.8c-2.581-2.583-6.584-3.09-9.728-1.232c-4.499,2.648-9.346,4.654-14.4,5.96
			c-3.531,0.912-5.999,4.097-6,7.744V464H376v-18.096c-0.001-3.647-2.469-6.832-6-7.744c-5.054-1.306-9.901-3.312-14.4-5.96
			c-3.144-1.858-7.147-1.351-9.728,1.232l-12.8,12.8L321.76,434.92l12.8-12.8c2.583-2.581,3.09-6.584,1.232-9.728
			c-2.648-4.499-4.654-9.346-5.96-14.4c-0.912-3.531-4.097-5.999-7.744-6H304V376h18.096c3.647-0.001,6.832-2.469,7.744-6
			c1.306-5.054,3.312-9.901,5.96-14.4c1.858-3.144,1.351-7.147-1.232-9.728l-12.8-12.8l11.312-11.312l12.8,12.8
			c2.581,2.583,6.584,3.09,9.728,1.232c4.499-2.648,9.346-4.654,14.4-5.96c3.531-0.912,5.999-4.097,6-7.744V304h16v18.096
			c0.001,3.647,2.469,6.832,6,7.744c5.054,1.306,9.901,3.312,14.4,5.96c3.144,1.858,7.147,1.351,9.728-1.232l12.8-12.8
			l11.312,11.312l-12.8,12.8c-2.583,2.581-3.09,6.584-1.232,9.728c2.648,4.499,4.654,9.346,5.96,14.4
			c0.912,3.531,4.097,5.999,7.744,6H464V392z"/>
	</g>
</g>
<g>
	<g>
		<path d="M384,344c-22.091,0-40,17.909-40,40c0,22.091,17.909,40,40,40c22.091,0,40-17.909,40-40
			C423.974,361.92,406.08,344.026,384,344z M384,408c-13.255,0-24-10.745-24-24s10.745-24,24-24s24,10.745,24,24
			S397.255,408,384,408z"/>
	</g>
</g>
<g>
	<g>
		<path d="M368,208h-6.056l4.28-4.288c3.123-3.124,3.123-8.188,0-11.312L343.6,169.776c-3.124-3.123-8.188-3.123-11.312,0
			l-4.288,4.28V168c0-4.418-3.582-8-8-8h-32c-4.418,0-8,3.582-8,8v6.056l-4.288-4.28c-3.124-3.123-8.188-3.123-11.312,0
			L241.776,192.4c-3.123,3.124-3.123,8.188,0,11.312l4.28,4.288H240c-4.418,0-8,3.582-8,8v32c0,4.418,3.582,8,8,8h6.056l-4.28,4.288
			c-3.123,3.124-3.123,8.188,0,11.312l22.624,22.624c3.124,3.123,8.188,3.123,11.312,0l4.288-4.28V296c0,4.418,3.582,8,8,8h32
			c4.418,0,8-3.582,8-8v-6.056l4.288,4.28c3.124,3.123,8.188,3.123,11.312,0l22.624-22.624c3.123-3.124,3.123-8.188,0-11.312
			l-4.28-4.288H368c4.418,0,8-3.582,8-8v-32C376,211.582,372.418,208,368,208z M360,240h-17.368
			c-4.418,0.001-7.999,3.583-7.998,8.002c0,2.121,0.843,4.154,2.342,5.654l12.28,12.288l-11.312,11.312l-12.288-12.28
			c-3.125-3.124-8.19-3.123-11.314,0.002c-1.499,1.5-2.342,3.534-2.342,5.654V288h-16v-17.368c-0.001-4.418-3.583-7.999-8.002-7.998
			c-2.121,0-4.154,0.843-5.654,2.342l-12.288,12.28l-11.312-11.312l12.28-12.288c3.124-3.125,3.123-8.19-0.002-11.314
			c-1.5-1.499-3.534-2.342-5.654-2.342H248v-16h17.376c4.418-0.001,7.999-3.583,7.998-8.002c0-2.121-0.843-4.154-2.342-5.654
			l-12.288-12.288l11.312-11.312l12.288,12.28c3.125,3.124,8.19,3.123,11.314-0.002c1.499-1.5,2.342-3.534,2.342-5.654V176h16
			v17.368c0.001,4.418,3.583,7.999,8.002,7.998c2.121,0,4.154-0.843,5.654-2.342l12.288-12.28l11.312,11.312l-12.288,12.288
			c-3.124,3.125-3.123,8.19,0.002,11.314c1.5,1.499,3.534,2.342,5.654,2.342H360V240z"/>
	</g>
</g>
<g>
	<g>
		<path d="M304,208c-13.255,0-24,10.745-24,24s10.745,24,24,24s24-10.745,24-24S317.255,208,304,208z M304,240c-4.418,0-8-3.582-8-8
			s3.582-8,8-8s8,3.582,8,8S308.418,240,304,240z"/>
	</g>
</g>
<g>
</g>
<g>
</g>
<g>
</g>
<g>
</g>
<g>
</g>
<g>
</g>
<g>
</g>
<g>
</g>
<g>
</g>
<g>
</g>
<g>
</g>
<g>
</g>
<g>
</g>
<g>
</g>
<g>
</g>
</svg>
