<svg xmlns="http://www.w3.org/2000/svg" viewBox="0 0 512 512" width="512" height="512">
	<style>
		tspan { white-space:pre }
		.shp0 { fill: #ffffff } 
	</style>
	<g id="Layer">
		<g id="Layer">
			<path id="Layer" fill-rule="evenodd" class="shp0" d="M341.33 373.33L341.33 458.67C341.33 464.56 336.56 469.33 330.67 469.33L181.33 469.33C175.44 469.33 170.67 464.56 170.67 458.67L170.67 373.33C170.67 367.44 175.44 362.67 181.33 362.67L330.67 362.67C336.56 362.67 341.33 367.44 341.33 373.33ZM320 384L192 384L192 448L320 448L320 384Z" />
		</g>
	</g>
	<g id="Layer">
		<g id="Layer">
			<path id="Layer" fill-rule="evenodd" class="shp0" d="M373.33 458.67L373.33 490.67C373.33 502.45 363.78 512 352 512L160 512C148.22 512 138.67 502.45 138.67 490.67L138.67 458.67C138.67 452.78 143.44 448 149.33 448L362.67 448C368.56 448 373.33 452.78 373.33 458.67ZM352 469.33L160 469.33L160 490.67L352 490.67L352 469.33Z" />
		</g>
	</g>
	<g id="Layer">
		<g id="Layer">
			<path id="Layer" fill-rule="evenodd" class="shp0" d="M512 32L512 352C512 369.67 497.67 384 480 384L32 384C14.33 384 0 369.67 0 352L0 32C0 14.33 14.33 0 32 0L480 0C497.67 0 512 14.33 512 32ZM490.67 32C490.67 26.11 485.89 21.33 480 21.33L32 21.33C26.11 21.33 21.33 26.11 21.33 32L21.33 352C21.33 357.89 26.11 362.67 32 362.67L480 362.67C485.89 362.67 490.67 357.89 490.67 352L490.67 32Z" />
		</g>
	</g>
	<g id="Layer">
		<g id="Layer">
			<path id="Layer" class="shp0" d="M117.33 490.67L394.67 490.67L394.67 512L117.33 512L117.33 490.67Z" />
		</g>
	</g>
	<g id="Layer">
		<g id="Layer">
			<path id="Layer" class="shp0" d="M458.67 42.67L53.33 42.67C47.44 42.67 42.67 47.44 42.67 53.33L42.67 106.67L64 106.67L64 64L448 64L448 106.67L469.33 106.67L469.33 53.33C469.33 47.44 464.56 42.67 458.67 42.67Z" />
		</g>
	</g>
	<g id="Layer">
		<g id="Layer">
			<path id="Layer" class="shp0" d="M448 277.33L448 320L64 320L64 277.33L42.67 277.33L42.67 330.67C42.67 336.56 47.44 341.33 53.33 341.33L458.67 341.33C464.56 341.33 469.33 336.56 469.33 330.67L469.33 277.33L448 277.33L448 277.33Z" />
		</g>
	</g>
	<g id="Layer">
		<g id="Layer">
			<path id="Layer" class="shp0" d="M160 234.67L160 213.33L138.67 213.33L138.67 234.67C138.73 235.3 138.73 235.94 138.67 236.57C138.14 241.94 133.37 245.86 128 245.33L117.33 245.33C116.7 245.4 116.06 245.4 115.43 245.33C110.06 244.81 106.14 240.03 106.67 234.67L106.67 149.33C106.6 148.7 106.6 148.06 106.67 147.43C107.19 142.06 111.97 138.14 117.33 138.67L128 138.67C128.63 138.6 129.27 138.6 129.91 138.67C135.27 139.19 139.19 143.97 138.67 149.33L138.67 170.67L160 170.67L160 149.33C160.02 148.73 160.02 148.12 160 147.52C159.5 130.34 145.17 116.83 128 117.33L114.67 117.33C113.44 117.34 112.22 117.55 111.06 117.96C95.76 120.36 84.69 133.86 85.33 149.33L85.33 234.67C85.32 235.27 85.32 235.88 85.33 236.49C85.84 253.66 100.16 267.17 117.33 266.67L130.67 266.67C131.9 266.67 133.12 266.45 134.27 266.04C149.57 263.64 160.64 250.14 160 234.67Z" />
		</g>
	</g>
	<g id="Layer">
		<g id="Layer">
			<path id="Layer" fill-rule="evenodd" class="shp0" d="M256 148.45L256 235.55C255.98 252.73 242.06 266.65 224.88 266.67L201.78 266.67C184.6 266.65 170.68 252.73 170.67 235.55L170.67 148.45C170.68 131.27 184.6 117.35 201.78 117.33L224.88 117.33C242.06 117.35 255.98 131.27 256 148.45ZM234.67 235.55L234.67 148.45C234.66 143.05 230.29 138.67 224.89 138.67L201.78 138.67C196.38 138.67 192.01 143.05 192 148.45L192 235.55C192.01 240.95 196.38 245.33 201.78 245.33L224.89 245.33C230.28 245.33 234.66 240.95 234.67 235.55Z" />
		</g>
	</g>
	<g id="Layer">
		<g id="Layer">
			<path id="Layer" fill-rule="evenodd" class="shp0" d="M352 148.45L352 235.55C351.98 252.73 338.06 266.65 320.88 266.67L277.33 266.67C271.44 266.67 266.67 261.89 266.67 256L266.67 128C266.67 122.11 271.44 117.33 277.33 117.33L320.88 117.33C338.06 117.35 351.98 131.27 352 148.45ZM330.67 235.55L330.67 148.45C330.66 143.05 326.28 138.67 320.88 138.67L288 138.67L288 245.33L320.89 245.33C326.28 245.33 330.66 240.95 330.67 235.55L330.67 235.55Z" />
		</g>
	</g>
	<g id="Layer">
		<g id="Layer">
			<path id="Layer" class="shp0" d="M426.67 138.67L426.67 117.33L373.33 117.33C367.44 117.33 362.67 122.11 362.67 128L362.67 256C362.67 261.89 367.44 266.67 373.33 266.67L426.67 266.67L426.67 245.33L384 245.33L384 138.67L426.67 138.67Z" />
		</g>
	</g>
	<g id="Layer">
		<g id="Layer">
			<path id="Layer" class="shp0" d="M373.33 181.33L426.67 181.33L426.67 202.67L373.33 202.67L373.33 181.33Z" />
		</g>
	</g>
	<g id="Layer">
		<g id="Layer">
			<path id="Layer" class="shp0" d="M42.67 234.67L64 234.67L64 256L42.67 256L42.67 234.67Z" />
		</g>
	</g>
	<g id="Layer">
		<g id="Layer">
			<path id="Layer" class="shp0" d="M42.67 128L64 128L64 149.33L42.67 149.33L42.67 128Z" />
		</g>
	</g>
	<g id="Layer">
		<g id="Layer">
			<path id="Layer" class="shp0" d="M448 128L469.33 128L469.33 149.33L448 149.33L448 128Z" />
		</g>
	</g>
	<g id="Layer">
		<g id="Layer">
			<path id="Layer" class="shp0" d="M448 234.67L469.33 234.67L469.33 256L448 256L448 234.67Z" />
		</g>
	</g>
	<g id="Layer">
		<g id="Layer">
			<path id="Layer" class="shp0" d="M448 181.33L469.33 181.33L469.33 202.67L448 202.67L448 181.33Z" />
		</g>
	</g>
	<g id="Layer">
		<g id="Layer">
			<path id="Layer" class="shp0" d="M42.67 181.33L64 181.33L64 202.67L42.67 202.67L42.67 181.33Z" />
		</g>
	</g>
	<g id="Layer">
	</g>
	<g id="Layer">
	</g>
	<g id="Layer">
	</g>
	<g id="Layer">
	</g>
	<g id="Layer">
	</g>
	<g id="Layer">
	</g>
	<g id="Layer">
	</g>
	<g id="Layer">
	</g>
	<g id="Layer">
	</g>
	<g id="Layer">
	</g>
	<g id="Layer">
	</g>
	<g id="Layer">
	</g>
	<g id="Layer">
	</g>
	<g id="Layer">
	</g>
	<g id="Layer">
	</g>
</svg>