<?xml version="1.0" encoding="iso-8859-1"?>
<!-- Generator: Adobe Illustrator 19.0.0, SVG Export Plug-In . SVG Version: 6.00 Build 0)  -->
<svg version="1.1" id="Capa_1" xmlns="http://www.w3.org/2000/svg" xmlns:xlink="http://www.w3.org/1999/xlink" x="0px" y="0px"
	 viewBox="0 0 480 480" style="enable-background:new 0 0 480 480;" xml:space="preserve">
<g>
	<g>
		<path d="M472,352h-34.24l-38.176-114.528c-1.088-3.266-4.142-5.469-7.584-5.472h-24V48c0-31.512-64.392-48-128-48
			S112,16.488,112,48v96.392C54.04,146.92,0,163.136,0,192v240c0,31.512,64.392,48,128,48s128-16.488,128-48v-72h19.56L304,405.6
			V472c0,4.418,3.582,8,8,8h160c4.418,0,8-3.582,8-8V360C480,355.582,476.418,352,472,352z M240,16c68.368,0,112,18.952,112,32
			s-43.632,32-112,32S128,61.048,128,48S171.632,16,240,16z M240,432c0,13.048-43.632,32-112,32S16,445.048,16,432v-55.552
			C39.032,392,83.672,400,128,400s88.968-8,112-23.552V432z M240,352c0,13.048-43.632,32-112,32S16,365.048,16,352v-55.552
			C39.032,312,83.672,320,128,320s88.968-8,112-23.552V352z M240,272c0,13.048-43.632,32-112,32S16,285.048,16,272v-55.552
			C39.032,232,83.672,240,128,240s88.968-8,112-23.552V272z M128,224c-68.368,0-112-18.952-112-32c0-13.048,43.632-32,112-32
			s112,18.952,112,32C240,205.048,196.368,224,128,224z M240,160c-5.048,0-10.064-0.152-14.952-0.352
			c-24.989-9.234-51.315-14.336-77.944-15.104C133.104,138.32,128,131.952,128,128V72.448C151.032,88,195.672,96,240,96
			s88.968-8,112-23.552V128C352,141.048,308.368,160,240,160z M249.6,175.848c41.064-1.08,81.024-9,102.4-23.4V208
			c0,11.872-36.336,28.928-96,31.536V192C255.901,186.017,253.626,180.275,249.6,175.848z M352,232.544V288
			c0,11.872-36.336,28.928-96,31.536V255.56C293.352,253.96,331.272,246.44,352,232.544z M304,360v15.376l-17.208-27.608
			c-1.461-2.345-4.029-3.769-6.792-3.768h-24v-8.44c55.368-2.4,112-17.784,112-47.56v-40h18.232l34.672,104H312
			C307.582,352,304,355.582,304,360z M464,464H320v-96h144V464z"/>
	</g>
</g>
<g>
</g>
<g>
</g>
<g>
</g>
<g>
</g>
<g>
</g>
<g>
</g>
<g>
</g>
<g>
</g>
<g>
</g>
<g>
</g>
<g>
</g>
<g>
</g>
<g>
</g>
<g>
</g>
<g>
</g>
</svg>
