<svg xmlns="http://www.w3.org/2000/svg" viewBox="0 0 512 512" width="512" height="512">
	<style>
		tspan { white-space:pre }
		.shp0 { fill: #ffffff } 
	</style>
	<g id="Layer">
		<g id="Layer">
			<path id="Layer" fill-rule="evenodd" class="shp0" d="M512 106L512 406C512 430.87 491.72 451 467 451L45 451C20.13 451 0 430.72 0 406L0 106C0 81.2 20.22 61 45 61L467 61C491.87 61 512 81.28 512 106ZM51.36 91L256.95 294.83L460.79 91L51.36 91ZM174.48 255.31L30 112.07L30 399.79L174.48 255.31ZM460.79 421L317 277.21L267.61 326.61C261.77 332.45 252.3 332.47 246.44 326.65L195.78 276.43L51.21 421L460.79 421ZM482 112.21L338.21 256L482 399.79L482 112.21Z" />
		</g>
	</g>
	<g id="Layer">
	</g>
	<g id="Layer">
	</g>
	<g id="Layer">
	</g>
	<g id="Layer">
	</g>
	<g id="Layer">
	</g>
	<g id="Layer">
	</g>
	<g id="Layer">
	</g>
	<g id="Layer">
	</g>
	<g id="Layer">
	</g>
	<g id="Layer">
	</g>
	<g id="Layer">
	</g>
	<g id="Layer">
	</g>
	<g id="Layer">
	</g>
	<g id="Layer">
	</g>
	<g id="Layer">
	</g>
</svg>