<svg xmlns="http://www.w3.org/2000/svg" viewBox="0 0 384 384" width="384" height="384">
	<style>
		tspan { white-space:pre }
		.shp0 { fill: #ffffff } 
	</style>
	<g id="Layer">
		<g id="Layer">
			<path id="Layer" fill-rule="evenodd" class="shp0" d="M384 282.86L384 353.19C384 370.18 370.18 384 353.19 384C158.44 384 0 225.56 0 30.81C0 13.82 13.82 0 30.81 0L101.33 0C118.32 0 132.15 13.82 132.14 30.81C132.14 54.33 135.83 77.41 143.09 99.4C146.63 110.65 143.68 122.64 135.46 130.84L103.82 172.9C130.19 222.59 161.03 253.43 211.1 280.16L254.28 247.56C261.4 240.31 273.81 237.43 284.72 241.15C306.59 248.38 329.68 252.05 353.19 252.05C370.18 252.05 384 265.88 384 282.86ZM362.67 282.87C362.67 277.64 358.42 273.39 353.19 273.39C327.4 273.39 302.07 269.34 277.92 261.37C274.52 260.21 270.76 261.11 268.25 263.62L218.57 301.25C215.3 303.72 210.89 304.11 207.28 302.23C148.04 271.88 111.68 235.51 81.75 176.69C79.91 173.05 80.29 168.69 82.75 165.43L119.42 116.87C123 113.14 123.9 109.47 122.79 105.93C114.87 81.94 110.81 56.61 110.81 30.81C110.81 25.58 106.56 21.33 101.33 21.33L30.81 21.33C25.58 21.33 21.33 25.58 21.33 30.81C21.33 213.8 170.2 362.67 353.19 362.67C358.42 362.67 362.67 358.42 362.67 353.19L362.67 282.87Z" />
		</g>
	</g>
	<g id="Layer">
	</g>
	<g id="Layer">
	</g>
	<g id="Layer">
	</g>
	<g id="Layer">
	</g>
	<g id="Layer">
	</g>
	<g id="Layer">
	</g>
	<g id="Layer">
	</g>
	<g id="Layer">
	</g>
	<g id="Layer">
	</g>
	<g id="Layer">
	</g>
	<g id="Layer">
	</g>
	<g id="Layer">
	</g>
	<g id="Layer">
	</g>
	<g id="Layer">
	</g>
	<g id="Layer">
	</g>
</svg>