<svg xmlns="http://www.w3.org/2000/svg" viewBox="0 0 512 512" width="512" height="512">
	<style>
		tspan { white-space:pre }
		.shp0 { fill: #ffffff } 
	</style>
	<g id="Layer">
		<g id="Layer">
			<path id="Layer" class="shp0" d="M473.88 212.67C466.53 208.87 457.48 211.75 453.67 219.11L436.22 252.9L419.42 219.29C416.88 214.21 411.68 211 406 211C400.32 211 395.12 214.21 392.58 219.29L376 252.46L359.42 219.29C356.73 213.91 351.1 210.67 345.08 211.03L344.17 211.08C337.49 211.49 332.1 216.22 330.55 222.39C329.53 218.28 326.79 214.62 322.71 212.58C315.3 208.88 306.29 211.88 302.58 219.29L286 252.46L269.42 219.29C266.88 214.21 261.68 211 256 211C250.32 211 245.13 214.21 242.58 219.29L226 252.46L209.42 219.29C205.71 211.88 196.7 208.88 189.29 212.58C185.21 214.63 182.47 218.28 181.45 222.39C179.9 216.22 174.51 211.49 167.83 211.08L166.92 211.03C160.91 210.66 155.27 213.91 152.58 219.29L136 252.46L119.42 219.29C113.96 208.4 98.16 208.13 92.58 219.29L75.78 252.9L58.33 219.12C54.52 211.76 45.48 208.87 38.12 212.67C30.76 216.48 27.87 225.53 31.67 232.89L62.67 292.89C68.3 303.78 83.93 303.68 89.42 292.71L106 259.54L122.58 292.71C128.11 303.75 143.91 303.73 149.42 292.71L177.37 236.81C179.33 234.9 180.78 232.44 181.46 229.67C181.72 230.7 182.09 231.72 182.58 232.71L212.58 292.71C218.11 303.75 233.91 303.73 239.42 292.71L256 259.54L272.58 292.71C278.11 303.75 293.91 303.73 299.42 292.71L329.42 232.71C329.91 231.72 330.28 230.7 330.54 229.67C331.22 232.44 332.67 234.9 334.63 236.81L362.58 292.71C368.11 303.75 383.91 303.73 389.42 292.71L406 259.54L422.58 292.71C428.06 303.67 443.69 303.79 449.33 292.88L480.33 232.88C484.13 225.52 481.25 216.47 473.88 212.67Z" />
		</g>
	</g>
	<g id="Layer">
		<g id="Layer">
			<path id="Layer" fill-rule="evenodd" class="shp0" d="M512 196L512 316C512 331.12 504.5 344.51 493.03 352.67C454.92 445.69 362.64 512 256 512C149.38 512 57.09 445.71 18.97 352.67C7.5 344.51 0 331.12 0 316L0 196C0 180.88 7.5 167.49 18.97 159.33C57.08 66.31 149.36 0 256 0C362.62 0 454.91 66.29 493.03 159.33C504.5 167.49 512 180.88 512 196ZM332 43.4C333.35 45.13 334.69 46.91 336.01 48.74C354.94 74.99 369.82 110.16 379.36 151L456.05 151C429.43 100.69 384.61 62.44 332 43.4ZM271 151L348.49 151C337.71 108.43 312.05 46.29 271 32.51L271 151ZM200.32 66.29C184.71 87.93 172.13 116.96 163.51 151L241 151L241 32.51C223.64 38.34 209.69 53.29 200.32 66.29ZM55.95 151L132.64 151C142.17 110.16 157.06 74.99 175.99 48.74C177.31 46.91 178.65 45.13 180 43.4C127.39 62.44 82.58 100.69 55.95 151ZM180 468.6C156.37 438.31 141.37 398.4 132.64 361L55.95 361C82.58 411.31 127.39 449.56 180 468.6ZM241 361L163.51 361C174.29 403.57 199.96 465.71 241 479.49L241 361ZM348.49 360.8L271 360.8L271 479.49C311.96 465.74 337.69 403.43 348.49 360.8ZM456.05 360.8L379.36 360.8C370.63 398.21 355.63 438.32 332 468.6C384.61 449.56 429.43 411.11 456.05 360.8ZM482 196C482 187.73 475.27 181 467 181C456.73 181 56.44 181 45 181C36.73 181 30 187.73 30 196L30 316C30 324.27 36.73 331 45 331C55.88 331 457.48 331 467 331C475.27 331 482 324.27 482 316L482 196Z" />
		</g>
	</g>
	<g id="Layer">
	</g>
	<g id="Layer">
	</g>
	<g id="Layer">
	</g>
	<g id="Layer">
	</g>
	<g id="Layer">
	</g>
	<g id="Layer">
	</g>
	<g id="Layer">
	</g>
	<g id="Layer">
	</g>
	<g id="Layer">
	</g>
	<g id="Layer">
	</g>
	<g id="Layer">
	</g>
	<g id="Layer">
	</g>
	<g id="Layer">
	</g>
	<g id="Layer">
	</g>
	<g id="Layer">
	</g>
</svg>